<mxfile host="Electron" modified="2025-01-06T16:40:12.379Z" agent="Mozilla/5.0 (X11; Linux x86_64) AppleWebKit/537.36 (KHTML, like Gecko) draw.io/24.6.4 Chrome/124.0.6367.207 Electron/30.0.6 Safari/537.36" etag="kNz-sQ9xnHv-Eec-MoaZ" version="24.6.4" type="device">
  <diagram name="Page-1" id="ul92bJnL2AM9P0gkZeio">
    <mxGraphModel dx="1434" dy="838" grid="1" gridSize="10" guides="1" tooltips="1" connect="1" arrows="1" fold="1" page="1" pageScale="1" pageWidth="827" pageHeight="1169" math="0" shadow="0">
      <root>
        <mxCell id="0" />
        <mxCell id="1" parent="0" />
        <mxCell id="ywwv0qXHeloJzSdKcF_y-1" value="" style="shape=image;verticalLabelPosition=bottom;verticalAlign=top;imageAspect=0;aspect=fixed;image=data:image/svg+xml,PHN2ZyB4bWxucz0iaHR0cDovL3d3dy53My5vcmcvMjAwMC9zdmciIGZpbGw9Im5vbmUiIHZpZXdCb3g9IjAgMCAxNiAxNiIgaGVpZ2h0PSI4MDBweCIgd2lkdGg9IjgwMHB4Ij4mI3hhOyYjeGE7PHBhdGggZD0iTTQuNTEgNy42ODdjMCAuMTk3LjAyLjM1Ny4wNTguNDc1LjA0Mi4xMTcuMDk2LjI0NS4xNy4zODRhLjIzMy4yMzMgMCAwMS4wMzcuMTIzYzAgLjA1My0uMDMyLjEwNy0uMS4xNmwtLjMzNi4yMjRhLjI1NS4yNTUgMCAwMS0uMTM4LjA0OGMtLjA1NCAwLS4xMDctLjAyNi0uMTYtLjA3NGExLjY1MiAxLjY1MiAwIDAxLS4xOTItLjI1MSA0LjEzNyA0LjEzNyAwIDAxLS4xNjUtLjMxNWMtLjQxNS40OTEtLjkzNi43MzctMS41NjQuNzM3LS40NDcgMC0uODA0LS4xMjktMS4wNjQtLjM4NS0uMjYxLS4yNTYtLjM5NC0uNTk4LS4zOTQtMS4wMjUgMC0uNDU0LjE2LS44MjIuNDg0LTEuMS4zMjUtLjI3OC43NTYtLjQxNiAxLjMwNC0uNDE2LjE4IDAgLjM2Ny4wMTYuNTY0LjA0Mi4xOTcuMDI3LjQuMDcuNjEyLjExOHYtLjM5YzAtLjQwNi0uMDg1LS42ODktLjI1LS44NTQtLjE3LS4xNjYtLjQ1OC0uMjQ2LS44NjgtLjI0Ni0uMTg2IDAtLjM3Ny4wMjItLjU3NC4wN2E0LjIzIDQuMjMgMCAwMC0uNTc1LjE4MSAxLjUyNSAxLjUyNSAwIDAxLS4xODYuMDcuMzI2LjMyNiAwIDAxLS4wODUuMDE2Yy0uMDc1IDAtLjExMi0uMDU0LS4xMTItLjE2NnYtLjI2MmMwLS4wODUuMDEtLjE1LjAzNy0uMTg2YS4zOTkuMzk5IDAgMDEuMTUtLjExM2MuMTg1LS4wOTYuNDA5LS4xNzYuNjctLjI0LjI2LS4wNy41MzctLjEwMS44My0uMTAxLjYzMyAwIDEuMDk2LjE0NCAxLjM5NC40MzIuMjkzLjI4OC40NDIuNzI2LjQ0MiAxLjMxNHYxLjczaC4wMXptLTIuMTYxLjgxMWMuMTc1IDAgLjM1Ni0uMDMyLjU0OC0uMDk2LjE5MS0uMDY0LjM2Mi0uMTgyLjUwNS0uMzQyYS44NDguODQ4IDAgMDAuMTgxLS4zNDFjLjAzMi0uMTI5LjA1NC0uMjgzLjA1NC0uNDY1VjcuMDNhNC40MyA0LjQzIDAgMDAtLjQ5LS4wOSAzLjk5NiAzLjk5NiAwIDAwLS41LS4wMzNjLS4zNTcgMC0uNjE4LjA3LS43OTMuMjE0LS4xNzYuMTQ0LS4yNi4zNDctLjI2LjYxNCAwIC4yNS4wNjMuNDM3LjE5Ni41NjYuMTI4LjEzMy4zMTQuMTk3LjU1OS4xOTd6bTQuMjczLjU3N2MtLjA5NiAwLS4xNi0uMDE2LS4yMDItLjA1NC0uMDQzLS4wMzItLjA4LS4xMDYtLjExMi0uMjA4bC0xLjI1LTQuMTI3YS45MzguOTM4IDAgMDEtLjA0OS0uMjE0YzAtLjA4NS4wNDMtLjEzMy4xMjgtLjEzM2guNTIyYy4xIDAgLjE3LjAxNi4yMDcuMDUzLjA0My4wMzIuMDc1LjEwNy4xMDcuMjA4bC44OTQgMy41MzUuODMtMy41MzVjLjAyNi0uMTA2LjA1OC0uMTc2LjEtLjIwOGEuMzY1LjM2NSAwIDAxLjIxNC0uMDUzaC40MjVjLjEwMiAwIC4xNy4wMTYuMjEzLjA1My4wNDMuMDMyLjA4LjEwNy4xMDEuMjA4bC44NDEgMy41NzguOTItMy41NzhhLjQ1OC40NTggMCAwMS4xMDctLjIwOC4zNDYuMzQ2IDAgMDEuMjA4LS4wNTNoLjQ5NWMuMDg1IDAgLjEzMy4wNDMuMTMzLjEzMyAwIC4wMjctLjAwNi4wNTQtLjAxLjA4NmEuNzYuNzYgMCAwMS0uMDM4LjEzM2wtMS4yODMgNC4xMjdjLS4wMzIuMTA3LS4wNjkuMTc3LS4xMTEuMjA5YS4zNC4zNCAwIDAxLS4yMDMuMDUzaC0uNDU3Yy0uMTAxIDAtLjE3LS4wMTYtLjIxMy0uMDUzLS4wNDMtLjAzOC0uMDgtLjEwNy0uMTAxLS4yMTRMOC4yMTMgNS4zN2wtLjgyIDMuNDM5Yy0uMDI2LjEwNy0uMDU4LjE3Ni0uMS4yMTMtLjA0My4wMzgtLjExOC4wNTQtLjIxMy4wNTRoLS40NTh6bTYuODM4LjE0NGEzLjUxIDMuNTEgMCAwMS0uODItLjA5NmMtLjI2Ni0uMDY0LS40NzMtLjEzNC0uNjEyLS4yMTQtLjA4NS0uMDQ4LS4xNDMtLjEwMS0uMTY1LS4xNWEuMzc4LjM3OCAwIDAxLS4wMzEtLjE0OXYtLjI3MmMwLS4xMTIuMDQyLS4xNjYuMTIyLS4xNjZhLjMuMyAwIDAxLjA5Ni4wMTZjLjAzMi4wMTEuMDguMDMyLjEzMy4wNTQuMTguMDguMzc4LjE0NC41ODUuMTg3LjIxMy4wNDIuNDIuMDY0LjYzMy4wNjQuMzM2IDAgLjU5Ni0uMDU5Ljc3Ny0uMTc2YS41NzUuNTc1IDAgMDAuMjc3LS41MDguNTIuNTIgMCAwMC0uMTQ0LS4zNzNjLS4wOTUtLjEwMi0uMjc2LS4xOTMtLjUzNy0uMjc4bC0uNzcyLS4yNGMtLjM4OC0uMTIzLS42NzYtLjMwNS0uODUxLS41NDVhMS4yNzUgMS4yNzUgMCAwMS0uMjY2LS43NzRjMC0uMjI0LjA0OC0uNDIyLjE0My0uNTkzLjA5Ni0uMTcuMjI0LS4zMi4zODQtLjQzOC4xNi0uMTIyLjM0LS4yMTMuNTUzLS4yNzcuMjEzLS4wNjQuNDM2LS4wOTEuNjctLjA5MS4xMTggMCAuMjQuMDA1LjM1Ny4wMjEuMTIyLjAxNi4yMzQuMDM4LjM0Ni4wNi4xMDYuMDI2LjIwOC4wNTIuMzAzLjA4NS4wOTYuMDMyLjE3LjA2NC4yMjQuMDk2YS40Ni40NiAwIDAxLjE2LjEzMy4yODkuMjg5IDAgMDEuMDQ3LjE3NnYuMjUxYzAgLjExMi0uMDQyLjE3MS0uMTIyLjE3MWEuNTUyLjU1MiAwIDAxLS4yMDItLjA2NCAyLjQyNyAyLjQyNyAwIDAwLTEuMDIyLS4yMDhjLS4zMDMgMC0uNTQzLjA0OC0uNzA4LjE1LS4xNjUuMS0uMjUuMjU2LS4yNS40NzUgMCAuMTQ5LjA1My4yNzcuMTYuMzc5LjEwNi4xMDEuMzAzLjIwMi41ODUuMjkzbC43NTYuMjRjLjM4My4xMjMuNjYuMjk0LjgyNS41MTMuMTY1LjIxOS4yNDQuNDcuMjQ0Ljc0OCAwIC4yMy0uMDQ3LjQzNy0uMTM4LjYxOWExLjQzNiAxLjQzNiAwIDAxLS4zODguNDdjLS4xNjUuMTMzLS4zNjIuMjMtLjU5MS4yOTktLjI0LjA3NS0uNDkuMTEyLS43NjEuMTEyeiIgZmlsbD0iIzI1MkYzRSIvPiYjeGE7JiN4YTs8ZyBjbGlwLXJ1bGU9ImV2ZW5vZGQiIGZpbGwtcnVsZT0iZXZlbm9kZCIgZmlsbD0iI0Y5MCI+JiN4YTsmI3hhOzxwYXRoIGQ9Ik0xNC40NjUgMTEuODEzYy0xLjc1IDEuMjk3LTQuMjk0IDEuOTg2LTYuNDgxIDEuOTg2LTMuMDY1IDAtNS44MjctMS4xMzctNy45MTMtMy4wMjctLjE2NS0uMTUtLjAxNi0uMzUzLjE4LS4yMzUgMi4yNTcgMS4zMTMgNS4wNCAyLjEwOSA3LjkyIDIuMTA5IDEuOTQxIDAgNC4wNzUtLjQwNiA2LjAzOS0xLjIzOS4yOTMtLjEzMy41NDMuMTkyLjI1NS40MDZ6Ii8+JiN4YTsmI3hhOzxwYXRoIGQ9Ik0xNS4xOTQgMTAuOThjLS4yMjMtLjI4Ny0xLjQ3OS0uMTM4LTIuMDQ4LS4wNjktLjE3LjAyMi0uMTk3LS4xMjgtLjA0My0uMjQgMS0uNzA1IDIuNjQ1LS41MDIgMi44MzYtLjI2Ny4xOTIuMjQtLjA1MyAxLjg5LS45OSAyLjY4LS4xNDMuMTIzLS4yODEuMDYtLjIxOC0uMS4yMTMtLjUzLjY4Ny0xLjcyLjQ2My0yLjAwM3oiLz4mI3hhOyYjeGE7PC9nPiYjeGE7JiN4YTs8L3N2Zz4=;" vertex="1" parent="1">
          <mxGeometry x="260" y="70" width="50" height="50" as="geometry" />
        </mxCell>
        <mxCell id="ywwv0qXHeloJzSdKcF_y-2" value="VPC" style="points=[[0,0],[0.25,0],[0.5,0],[0.75,0],[1,0],[1,0.25],[1,0.5],[1,0.75],[1,1],[0.75,1],[0.5,1],[0.25,1],[0,1],[0,0.75],[0,0.5],[0,0.25]];outlineConnect=0;gradientColor=none;html=1;whiteSpace=wrap;fontSize=12;fontStyle=0;container=1;pointerEvents=0;collapsible=0;recursiveResize=0;shape=mxgraph.aws4.group;grIcon=mxgraph.aws4.group_vpc2;strokeColor=#8C4FFF;fillColor=none;verticalAlign=top;align=left;spacingLeft=30;fontColor=#AAB7B8;dashed=0;" vertex="1" parent="1">
          <mxGeometry x="300" y="160" width="660" height="430" as="geometry" />
        </mxCell>
        <mxCell id="ywwv0qXHeloJzSdKcF_y-3" value="Public subnet" style="points=[[0,0],[0.25,0],[0.5,0],[0.75,0],[1,0],[1,0.25],[1,0.5],[1,0.75],[1,1],[0.75,1],[0.5,1],[0.25,1],[0,1],[0,0.75],[0,0.5],[0,0.25]];outlineConnect=0;gradientColor=none;html=1;whiteSpace=wrap;fontSize=12;fontStyle=0;container=1;pointerEvents=0;collapsible=0;recursiveResize=0;shape=mxgraph.aws4.group;grIcon=mxgraph.aws4.group_security_group;grStroke=0;strokeColor=#7AA116;fillColor=#F2F6E8;verticalAlign=top;align=left;spacingLeft=30;fontColor=#248814;dashed=0;" vertex="1" parent="ywwv0qXHeloJzSdKcF_y-2">
          <mxGeometry x="50" y="120" width="180" height="170" as="geometry" />
        </mxCell>
        <mxCell id="ywwv0qXHeloJzSdKcF_y-8" value="" style="group" vertex="1" connectable="0" parent="ywwv0qXHeloJzSdKcF_y-3">
          <mxGeometry x="40" y="40" width="100" height="110" as="geometry" />
        </mxCell>
        <mxCell id="ywwv0qXHeloJzSdKcF_y-5" value="Security group" style="fillColor=none;strokeColor=#DD3522;verticalAlign=top;fontStyle=0;fontColor=#DD3522;whiteSpace=wrap;html=1;" vertex="1" parent="ywwv0qXHeloJzSdKcF_y-8">
          <mxGeometry width="100" height="110" as="geometry" />
        </mxCell>
        <mxCell id="ywwv0qXHeloJzSdKcF_y-6" value="EC2 instance" style="sketch=0;points=[[0,0,0],[0.25,0,0],[0.5,0,0],[0.75,0,0],[1,0,0],[0,1,0],[0.25,1,0],[0.5,1,0],[0.75,1,0],[1,1,0],[0,0.25,0],[0,0.5,0],[0,0.75,0],[1,0.25,0],[1,0.5,0],[1,0.75,0]];outlineConnect=0;fontColor=#232F3E;fillColor=#ED7100;strokeColor=#ffffff;dashed=0;verticalLabelPosition=bottom;verticalAlign=top;align=center;html=1;fontSize=12;fontStyle=0;aspect=fixed;shape=mxgraph.aws4.resourceIcon;resIcon=mxgraph.aws4.ec2;" vertex="1" parent="ywwv0qXHeloJzSdKcF_y-8">
          <mxGeometry x="25" y="30" width="50" height="50" as="geometry" />
        </mxCell>
        <mxCell id="ywwv0qXHeloJzSdKcF_y-13" style="edgeStyle=orthogonalEdgeStyle;rounded=0;orthogonalLoop=1;jettySize=auto;html=1;startArrow=blockThin;startFill=1;" edge="1" parent="ywwv0qXHeloJzSdKcF_y-2" source="ywwv0qXHeloJzSdKcF_y-10" target="ywwv0qXHeloJzSdKcF_y-11">
          <mxGeometry relative="1" as="geometry" />
        </mxCell>
        <mxCell id="ywwv0qXHeloJzSdKcF_y-10" value="Router" style="sketch=0;outlineConnect=0;fontColor=#FFFFFF;gradientColor=none;fillColor=#8C4FFF;strokeColor=none;dashed=0;verticalLabelPosition=bottom;verticalAlign=top;align=center;html=1;fontSize=12;fontStyle=0;aspect=fixed;pointerEvents=1;shape=mxgraph.aws4.customer_gateway;" vertex="1" parent="ywwv0qXHeloJzSdKcF_y-2">
          <mxGeometry x="320" y="190" width="78" height="78" as="geometry" />
        </mxCell>
        <mxCell id="ywwv0qXHeloJzSdKcF_y-16" style="edgeStyle=orthogonalEdgeStyle;rounded=0;orthogonalLoop=1;jettySize=auto;html=1;startArrow=blockThin;startFill=1;" edge="1" parent="ywwv0qXHeloJzSdKcF_y-2" source="ywwv0qXHeloJzSdKcF_y-11">
          <mxGeometry relative="1" as="geometry">
            <mxPoint x="740" y="229" as="targetPoint" />
          </mxGeometry>
        </mxCell>
        <mxCell id="ywwv0qXHeloJzSdKcF_y-11" value="Internet&lt;div&gt;&amp;nbsp;Gateway&lt;/div&gt;" style="sketch=0;outlineConnect=0;fontColor=#FFFFFF;gradientColor=none;fillColor=#8C4FFF;strokeColor=none;dashed=0;verticalLabelPosition=bottom;verticalAlign=top;align=center;html=1;fontSize=12;fontStyle=0;aspect=fixed;pointerEvents=1;shape=mxgraph.aws4.internet_gateway;" vertex="1" parent="ywwv0qXHeloJzSdKcF_y-2">
          <mxGeometry x="527" y="190" width="78" height="78" as="geometry" />
        </mxCell>
        <mxCell id="ywwv0qXHeloJzSdKcF_y-12" value="" style="sketch=0;outlineConnect=0;fontColor=#232F3E;gradientColor=none;fillColor=#8C4FFF;strokeColor=none;dashed=0;verticalLabelPosition=bottom;verticalAlign=top;align=center;html=1;fontSize=12;fontStyle=0;aspect=fixed;pointerEvents=1;shape=mxgraph.aws4.route_table;" vertex="1" parent="ywwv0qXHeloJzSdKcF_y-2">
          <mxGeometry x="320" y="90" width="78" height="76" as="geometry" />
        </mxCell>
        <mxCell id="ywwv0qXHeloJzSdKcF_y-14" value="Region" style="points=[[0,0],[0.25,0],[0.5,0],[0.75,0],[1,0],[1,0.25],[1,0.5],[1,0.75],[1,1],[0.75,1],[0.5,1],[0.25,1],[0,1],[0,0.75],[0,0.5],[0,0.25]];outlineConnect=0;gradientColor=none;html=1;whiteSpace=wrap;fontSize=12;fontStyle=0;container=1;pointerEvents=0;collapsible=0;recursiveResize=0;shape=mxgraph.aws4.group;grIcon=mxgraph.aws4.group_region;strokeColor=#00A4A6;fillColor=none;verticalAlign=top;align=left;spacingLeft=30;fontColor=#147EBA;dashed=1;" vertex="1" parent="1">
          <mxGeometry x="260" y="120" width="730" height="500" as="geometry" />
        </mxCell>
        <mxCell id="ywwv0qXHeloJzSdKcF_y-15" value="Availability Zone" style="fillColor=none;strokeColor=#147EBA;dashed=1;verticalAlign=top;fontStyle=0;fontColor=#147EBA;whiteSpace=wrap;html=1;" vertex="1" parent="1">
          <mxGeometry x="330" y="130" width="220" height="480" as="geometry" />
        </mxCell>
        <mxCell id="ywwv0qXHeloJzSdKcF_y-17" value="" style="outlineConnect=0;dashed=0;verticalLabelPosition=bottom;verticalAlign=top;align=center;html=1;shape=mxgraph.aws3.internet;fillColor=#D2D3D3;gradientColor=none;" vertex="1" parent="1">
          <mxGeometry x="1040" y="350" width="79.5" height="79.5" as="geometry" />
        </mxCell>
        <mxCell id="ywwv0qXHeloJzSdKcF_y-19" style="edgeStyle=orthogonalEdgeStyle;rounded=0;orthogonalLoop=1;jettySize=auto;html=1;dashed=1;" edge="1" parent="1" source="ywwv0qXHeloJzSdKcF_y-18" target="ywwv0qXHeloJzSdKcF_y-14">
          <mxGeometry relative="1" as="geometry" />
        </mxCell>
        <mxCell id="ywwv0qXHeloJzSdKcF_y-18" value="Terraform" style="shape=image;verticalLabelPosition=bottom;verticalAlign=top;imageAspect=0;aspect=fixed;image=data:image/svg+xml,PHN2ZyB4bWxucz0iaHR0cDovL3d3dy53My5vcmcvMjAwMC9zdmciIGZpbGw9Im5vbmUiIHZpZXdCb3g9IjAgMCA2NCA2NCIgaGVpZ2h0PSI4MDBweCIgd2lkdGg9IjgwMHB4Ij48cGF0aCBmaWxsPSIjNDA0MEIyIiBkPSJNMzguMDYgMjYuMTUxdjExLjQ3M0w0OCAzMS44OTFWMjAuNDA2bC05Ljk0IDUuNzQ1eiIvPjxwYXRoIGZpbGw9IiM1QzRFRTUiIGQ9Im0yNy4wMyAyMC40MDYgOS45NCA1Ljc0NXYxMS40NzNsLTkuOTQtNS43NFYyMC40MDd6TTE2IDE0djExLjQ3OWw5Ljk0IDUuNzR2LTExLjQ4TDE2IDE0em0xMS4wMyAzMC42MjQgOS45NCA1Ljc0di0xMS40OGwtOS45NC01LjczOXYxMS40OHoiLz48L3N2Zz4=" vertex="1" parent="1">
          <mxGeometry y="305" width="130" height="130" as="geometry" />
        </mxCell>
        <mxCell id="ywwv0qXHeloJzSdKcF_y-24" style="edgeStyle=orthogonalEdgeStyle;rounded=0;orthogonalLoop=1;jettySize=auto;html=1;" edge="1" parent="1" source="ywwv0qXHeloJzSdKcF_y-20">
          <mxGeometry relative="1" as="geometry">
            <mxPoint x="185" y="460" as="targetPoint" />
          </mxGeometry>
        </mxCell>
        <mxCell id="ywwv0qXHeloJzSdKcF_y-20" value="" style="image;sketch=0;aspect=fixed;html=1;points=[];align=center;fontSize=12;image=img/lib/mscae/Docker.svg;" vertex="1" parent="1">
          <mxGeometry x="140" y="536.2" width="90" height="73.8" as="geometry" />
        </mxCell>
        <mxCell id="ywwv0qXHeloJzSdKcF_y-26" style="edgeStyle=orthogonalEdgeStyle;rounded=0;orthogonalLoop=1;jettySize=auto;html=1;dashed=1;" edge="1" parent="1" source="ywwv0qXHeloJzSdKcF_y-25">
          <mxGeometry relative="1" as="geometry">
            <mxPoint x="185" y="370" as="targetPoint" />
          </mxGeometry>
        </mxCell>
        <mxCell id="ywwv0qXHeloJzSdKcF_y-25" value="&lt;font color=&quot;#ffff00&quot;&gt;user_data&lt;/font&gt;" style="rounded=1;whiteSpace=wrap;html=1;" vertex="1" parent="1">
          <mxGeometry x="150" y="420" width="70" height="30" as="geometry" />
        </mxCell>
      </root>
    </mxGraphModel>
  </diagram>
</mxfile>
